<svg xmlns="http://www.w3.org/2000/svg" viewBox="0 0 512 512" style="height: 512px; width: 512px;"><defs><radialGradient id="delapouite-house-gradient-1"><stop offset="0%" stop-color="#00ffff" stop-opacity="1"></stop><stop offset="100%" stop-color="#00ffff" stop-opacity="0.59"></stop></radialGradient></defs><circle cx="256" cy="256" r="256" fill="#000000" fill-opacity="1"></circle><g class="" transform="translate(5,-19)" style=""><path d="M256 19.27L25.637 249.638 19.27 256 32 268.73l6.363-6.367L256 44.727l217.637 217.636L480 268.73 492.73 256l-6.367-6.363zM96 48v107.273l64-64.002V48zm160 20.727l-192 192V486h64V320h96v166h224V260.727zM288 320h96v80h-96z" fill="url(#delapouite-house-gradient-1)" transform="translate(51.2, 51.2) scale(0.8, 0.8) rotate(0, 256, 256) skewX(0) skewY(0)"></path></g><g class="" transform="translate(352,-2)" style=""><g transform="translate(16, 16) scale(0.5, 0.5) rotate(0, 128, 128)"><circle cx="128" cy="128" r="128" fill="#00ff00" fill-opacity="1"></circle><circle stroke="#6f6f6f" stroke-opacity="1" fill="#00ff00" fill-opacity="1" stroke-width="18" cx="128" cy="128" r="101"></circle><path fill="#6f6f6f" fill-opacity="1" d="M167.113 57.102l-.992 21.603 13.16 7.697.621-21.726-12.789-7.574zm-14.129 26.582c-11.305.147-22.5 6.311-28.892 12.279-22.41 26.033-23.614 74.596-53.223 88.01v.002c36.856 13.126 78.422 2.292 102.5-27.961 18.15-23.496 14.895-47.259 3.16-60.975-8.66 30.452-30.28 52.776-56.718 61.549 23.525-13.791 40.411-43.059 44.341-70.815-3.619-1.518-7.4-2.138-11.168-2.09z"></path></g></g></svg>